<svg width="24" height="25" viewBox="0 0 24 25" fill="none" xmlns="http://www.w3.org/2000/svg">
<path d="M17.5 4.78882C15.55 4.78882 13.45 5.19474 12 6.31104C10.55 5.19474 8.45 4.78882 6.5 4.78882C5.05 4.78882 3.51 5.01208 2.22 5.59052C1.49 5.92541 1 6.64593 1 7.46793V18.915C1 20.2343 2.22 21.2085 3.48 20.8838C4.46 20.6301 5.5 20.5185 6.5 20.5185C8.06 20.5185 9.72 20.7823 11.06 21.4521C11.66 21.7565 12.34 21.7565 12.93 21.4521C14.27 20.7722 15.93 20.5185 17.49 20.5185C18.49 20.5185 19.53 20.6301 20.51 20.8838C21.77 21.2187 22.99 20.2445 22.99 18.915V7.46793C22.99 6.64593 22.5 5.92541 21.77 5.59052C20.49 5.01208 18.95 4.78882 17.5 4.78882ZM21 17.7074C21 18.3467 20.42 18.8136 19.8 18.7019C19.05 18.5599 18.27 18.499 17.5 18.499C15.8 18.499 13.35 19.1586 12 20.0212V8.34067C13.35 7.47808 15.8 6.81845 17.5 6.81845C18.42 6.81845 19.33 6.90978 20.2 7.1026C20.66 7.20408 21 7.62015 21 8.09712V17.7074Z" fill="url(#paint0_linear_14_45)"/>
<path d="M13.98 11.3953C13.66 11.3953 13.37 11.1924 13.27 10.8676C13.14 10.4718 13.36 10.0355 13.75 9.91369C15.29 9.40628 17.28 9.24391 19.11 9.45702C19.52 9.50777 19.82 9.88325 19.77 10.2993C19.72 10.7154 19.35 11.0198 18.94 10.9691C17.32 10.7763 15.55 10.9285 14.21 11.3649C14.13 11.375 14.05 11.3953 13.98 11.3953Z" fill="url(#paint1_linear_14_45)"/>
<path d="M13.98 14.0947C13.66 14.0947 13.37 13.8917 13.27 13.567C13.14 13.1712 13.36 12.7348 13.75 12.613C15.28 12.1056 17.28 11.9433 19.11 12.1564C19.52 12.2071 19.82 12.5826 19.77 12.9987C19.72 13.4147 19.35 13.7192 18.94 13.6684C17.32 13.4756 15.55 13.6278 14.21 14.0642C14.13 14.0845 14.05 14.0947 13.98 14.0947Z" fill="url(#paint2_linear_14_45)"/>
<path d="M13.98 16.7941C13.66 16.7941 13.37 16.5912 13.27 16.2664C13.14 15.8706 13.36 15.4343 13.75 15.3125C15.28 14.8051 17.28 14.6427 19.11 14.8558C19.52 14.9066 19.82 15.2821 19.77 15.6981C19.72 16.1142 19.35 16.4085 18.94 16.3679C17.32 16.1751 15.55 16.3273 14.21 16.7637C14.13 16.784 14.05 16.7941 13.98 16.7941Z" fill="url(#paint3_linear_14_45)"/>
<defs>
<linearGradient id="paint0_linear_14_45" x1="11.995" y1="4.78882" x2="11.995" y2="21.6804" gradientUnits="userSpaceOnUse">
<stop stop-color="#90C3F5"/>
<stop offset="1" stop-color="#6C9CE5"/>
</linearGradient>
<linearGradient id="paint1_linear_14_45" x1="16.504" y1="9.3656" x2="16.504" y2="11.3953" gradientUnits="userSpaceOnUse">
<stop stop-color="#90C3F5"/>
<stop offset="1" stop-color="#6C9CE5"/>
</linearGradient>
<linearGradient id="paint2_linear_14_45" x1="16.504" y1="12.0649" x2="16.504" y2="14.0947" gradientUnits="userSpaceOnUse">
<stop stop-color="#90C3F5"/>
<stop offset="1" stop-color="#6C9CE5"/>
</linearGradient>
<linearGradient id="paint3_linear_14_45" x1="16.504" y1="14.7644" x2="16.504" y2="16.7941" gradientUnits="userSpaceOnUse">
<stop stop-color="#90C3F5"/>
<stop offset="1" stop-color="#6C9CE5"/>
</linearGradient>
</defs>
</svg>
