<svg width="24" height="25" viewBox="0 0 24 25" fill="none" xmlns="http://www.w3.org/2000/svg">
<path d="M12.65 16.6683C12.79 16.3083 12.7 15.8983 12.42 15.6183L10.33 13.5583L10.36 13.5283C12.1 11.5883 13.34 9.35829 14.07 6.99829H16.01C16.55 6.99829 17 6.54829 17 6.00829V5.98829C17 5.44829 16.55 4.99829 16.01 4.99829H10V3.99829C10 3.44829 9.55 2.99829 9 2.99829C8.45 2.99829 8 3.44829 8 3.99829V4.99829H1.99C1.45 4.99829 1 5.44829 1 5.98829C1 6.53829 1.45 6.97829 1.99 6.97829H12.17C11.5 8.91829 10.44 10.7483 9 12.3483C8.19 11.4583 7.51 10.4883 6.94 9.46829C6.78 9.17829 6.49 8.99829 6.16 8.99829C5.47 8.99829 5.03 9.74829 5.37 10.3483C6 11.4783 6.77 12.5583 7.67 13.5583L3.3 17.8683C2.9 18.2583 2.9 18.8983 3.3 19.2883C3.69 19.6783 4.32 19.6783 4.72 19.2883L9 14.9983L11.02 17.0183C11.53 17.5283 12.4 17.3383 12.65 16.6683ZM17.5 10.9983C16.9 10.9983 16.36 11.3683 16.15 11.9383L12.48 21.7383C12.24 22.3483 12.7 22.9983 13.35 22.9983C13.74 22.9983 14.09 22.7583 14.23 22.3883L15.12 19.9983H19.87L20.77 22.3883C20.91 22.7483 21.26 22.9983 21.65 22.9983C22.3 22.9983 22.76 22.3483 22.53 21.7383L18.86 11.9383C18.64 11.3683 18.1 10.9983 17.5 10.9983ZM15.88 17.9983L17.5 13.6683L19.12 17.9983H15.88Z" fill="url(#paint0_linear_14_121)"/>
<defs>
<linearGradient id="paint0_linear_14_121" x1="11.795" y1="2.99829" x2="11.795" y2="22.9983" gradientUnits="userSpaceOnUse">
<stop stop-color="#8DC0F4"/>
<stop offset="1" stop-color="#6F9FE7"/>
</linearGradient>
</defs>
</svg>
