<svg width="238" height="51" viewBox="0 0 238 51" fill="none" xmlns="http://www.w3.org/2000/svg">
<path d="M7.56306 6.784V40H0.503998V6.784H7.56306ZM26.4353 6.784L15.3424 21.76L27.2996 40H19.0401L7.85119 22.288L18.896 6.784H26.4353Z" fill="#141414"/>
<path d="M49.3056 32.944C49.3056 33.936 49.4496 34.672 49.7378 35.152C50.0259 35.6 50.5061 35.936 51.1784 36.16L49.7378 40.672C48.2331 40.544 47.0006 40.192 46.0402 39.616C45.1118 39.04 44.3914 38.144 43.8792 36.928C42.2145 39.488 39.6694 40.768 36.2439 40.768C33.7148 40.768 31.6979 40.048 30.1933 38.608C28.7206 37.136 27.9843 35.232 27.9843 32.896C27.9843 30.112 28.9927 27.984 31.0096 26.512C33.0265 25.04 35.9238 24.304 39.7014 24.304H42.6307V23.056C42.6307 21.488 42.2785 20.4 41.5742 19.792C40.8699 19.184 39.7014 18.88 38.0687 18.88C36.2759 18.88 34.0349 19.328 31.3458 20.224L29.8091 15.664C32.9785 14.416 36.1158 13.792 39.2212 13.792C42.6787 13.792 45.2238 14.544 46.8565 16.048C48.4892 17.52 49.3056 19.728 49.3056 22.672V32.944ZM38.1167 35.872C40.0375 35.872 41.5422 34.928 42.6307 33.04V28.192H40.3737C36.6921 28.192 34.8513 29.568 34.8513 32.32C34.8513 33.44 35.1234 34.32 35.6677 34.96C36.2439 35.568 37.0603 35.872 38.1167 35.872Z" fill="#141414"/>
<path d="M62.9375 14.56V40H56.1185V14.56H62.9375ZM63.0816 0.304001L65.7707 5.536L54.7259 9.952L52.8051 6.448L63.0816 0.304001Z" fill="#141414"/>
<path d="M91.7129 14.56V50.56L84.8939 49.792V37.408C83.1331 39.648 80.8442 40.768 78.0269 40.768C74.8896 40.768 72.4885 39.568 70.8238 37.168C69.1911 34.736 68.3747 31.44 68.3747 27.28C68.3747 24.656 68.7909 22.336 69.6233 20.32C70.4877 18.272 71.6882 16.672 73.2248 15.52C74.7935 14.368 76.6183 13.792 78.6992 13.792C81.2923 13.792 83.5333 14.832 85.4221 16.912L85.8063 14.56H91.7129ZM80.0438 35.68C81.0362 35.68 81.9166 35.44 82.6849 34.96C83.4533 34.448 84.1896 33.664 84.8939 32.608V21.232C84.2216 20.432 83.5493 19.84 82.877 19.456C82.2047 19.04 81.4204 18.832 80.524 18.832C78.9553 18.832 77.7228 19.52 76.8264 20.896C75.93 22.272 75.4818 24.4 75.4818 27.28C75.4818 30.32 75.866 32.48 76.6343 33.76C77.4347 35.04 78.5712 35.68 80.0438 35.68Z" fill="#141414"/>
<path d="M119.259 40H113.353L113.017 36.592C112.12 38 111.032 39.056 109.751 39.76C108.471 40.432 106.982 40.768 105.285 40.768C102.98 40.768 101.219 40.08 100.003 38.704C98.7863 37.296 98.1781 35.344 98.1781 32.848V14.56H104.997V31.984C104.997 33.328 105.221 34.288 105.669 34.864C106.118 35.408 106.822 35.68 107.782 35.68C109.607 35.68 111.16 34.576 112.44 32.368V14.56H119.259V40Z" fill="#141414"/>
<path d="M147.506 26.704C147.506 27.024 147.458 27.904 147.362 29.344H131.467C131.691 31.648 132.315 33.28 133.34 34.24C134.364 35.2 135.757 35.68 137.518 35.68C138.606 35.68 139.631 35.504 140.591 35.152C141.551 34.8 142.592 34.24 143.712 33.472L146.546 37.312C143.696 39.616 140.479 40.768 136.893 40.768C132.892 40.768 129.818 39.568 127.673 37.168C125.528 34.768 124.456 31.52 124.456 27.424C124.456 24.832 124.904 22.512 125.801 20.464C126.729 18.384 128.058 16.752 129.786 15.568C131.547 14.384 133.628 13.792 136.029 13.792C139.647 13.792 142.464 14.928 144.481 17.2C146.498 19.472 147.506 22.64 147.506 26.704ZM140.735 24.784C140.735 20.56 139.214 18.448 136.173 18.448C134.764 18.448 133.66 18.976 132.86 20.032C132.091 21.056 131.627 22.736 131.467 25.072H140.735V24.784Z" fill="#141414"/>
<path d="M184.142 6.784L183.374 11.92H171.369V20.56H181.837V25.648H171.369V34.816H184.238V40H164.31V6.784H184.142Z" fill="#141414"/>
<path d="M211.36 15.952C209.695 16.592 207.246 16.912 204.013 16.912C205.613 17.616 206.798 18.496 207.566 19.552C208.335 20.576 208.719 21.872 208.719 23.44C208.719 25.072 208.287 26.544 207.422 27.856C206.59 29.136 205.373 30.144 203.773 30.88C202.204 31.616 200.363 31.984 198.25 31.984C197.13 31.984 196.137 31.872 195.273 31.648C194.633 32.064 194.312 32.624 194.312 33.328C194.312 33.84 194.505 34.256 194.889 34.576C195.305 34.864 196.089 35.008 197.242 35.008H201.131C203.02 35.008 204.669 35.328 206.078 35.968C207.518 36.576 208.623 37.44 209.391 38.56C210.191 39.648 210.592 40.896 210.592 42.304C210.592 44.896 209.471 46.912 207.23 48.352C205.021 49.824 201.82 50.56 197.626 50.56C194.617 50.56 192.232 50.24 190.471 49.6C188.742 48.992 187.526 48.096 186.821 46.912C186.117 45.728 185.765 44.24 185.765 42.448H191.863C191.863 43.28 192.023 43.936 192.344 44.416C192.664 44.928 193.24 45.296 194.072 45.52C194.937 45.776 196.169 45.904 197.77 45.904C199.979 45.904 201.516 45.632 202.38 45.088C203.276 44.544 203.725 43.776 203.725 42.784C203.725 41.888 203.388 41.2 202.716 40.72C202.044 40.24 201.051 40 199.739 40H195.993C193.464 40 191.575 39.536 190.327 38.608C189.078 37.648 188.454 36.448 188.454 35.008C188.454 34.112 188.71 33.248 189.222 32.416C189.766 31.552 190.503 30.832 191.431 30.256C189.863 29.392 188.71 28.384 187.974 27.232C187.269 26.048 186.917 24.64 186.917 23.008C186.917 21.152 187.365 19.536 188.262 18.16C189.19 16.752 190.471 15.68 192.103 14.944C193.768 14.176 195.657 13.792 197.77 13.792C200.395 13.856 202.556 13.632 204.253 13.12C205.95 12.608 207.758 11.808 209.679 10.72L211.36 15.952ZM197.914 18.352C196.633 18.352 195.609 18.768 194.841 19.6C194.104 20.4 193.736 21.504 193.736 22.912C193.736 24.352 194.104 25.488 194.841 26.32C195.609 27.152 196.649 27.568 197.962 27.568C199.339 27.568 200.379 27.168 201.083 26.368C201.788 25.568 202.14 24.384 202.14 22.816C202.14 19.84 200.731 18.352 197.914 18.352Z" fill="#141414"/>
<path d="M237.481 15.952C235.816 16.592 233.367 16.912 230.133 16.912C231.734 17.616 232.919 18.496 233.687 19.552C234.455 20.576 234.839 21.872 234.839 23.44C234.839 25.072 234.407 26.544 233.543 27.856C232.711 29.136 231.494 30.144 229.893 30.88C228.325 31.616 226.484 31.984 224.371 31.984C223.25 31.984 222.258 31.872 221.394 31.648C220.753 32.064 220.433 32.624 220.433 33.328C220.433 33.84 220.625 34.256 221.009 34.576C221.426 34.864 222.21 35.008 223.362 35.008H227.252C229.141 35.008 230.79 35.328 232.198 35.968C233.639 36.576 234.743 37.44 235.512 38.56C236.312 39.648 236.712 40.896 236.712 42.304C236.712 44.896 235.592 46.912 233.351 48.352C231.142 49.824 227.94 50.56 223.747 50.56C220.737 50.56 218.352 50.24 216.591 49.6C214.863 48.992 213.646 48.096 212.942 46.912C212.238 45.728 211.885 44.24 211.885 42.448H217.984C217.984 43.28 218.144 43.936 218.464 44.416C218.784 44.928 219.361 45.296 220.193 45.52C221.057 45.776 222.29 45.904 223.891 45.904C226.1 45.904 227.636 45.632 228.501 45.088C229.397 44.544 229.845 43.776 229.845 42.784C229.845 41.888 229.509 41.2 228.837 40.72C228.165 40.24 227.172 40 225.86 40H222.114C219.585 40 217.696 39.536 216.447 38.608C215.199 37.648 214.575 36.448 214.575 35.008C214.575 34.112 214.831 33.248 215.343 32.416C215.887 31.552 216.624 30.832 217.552 30.256C215.983 29.392 214.831 28.384 214.094 27.232C213.39 26.048 213.038 24.64 213.038 23.008C213.038 21.152 213.486 19.536 214.383 18.16C215.311 16.752 216.592 15.68 218.224 14.944C219.889 14.176 221.778 13.792 223.891 13.792C226.516 13.856 228.677 13.632 230.373 13.12C232.07 12.608 233.879 11.808 235.8 10.72L237.481 15.952ZM224.035 18.352C222.754 18.352 221.73 18.768 220.961 19.6C220.225 20.4 219.857 21.504 219.857 22.912C219.857 24.352 220.225 25.488 220.961 26.32C221.73 27.152 222.77 27.568 224.083 27.568C225.459 27.568 226.5 27.168 227.204 26.368C227.908 25.568 228.261 24.384 228.261 22.816C228.261 19.84 226.852 18.352 224.035 18.352Z" fill="#141414"/>
</svg>
